<svg version="1.1" id="Layer_1" xmlns="http://www.w3.org/2000/svg" xmlns:xlink="http://www.w3.org/1999/xlink" x="0px" y="0px"
	 width="100%" viewBox="0 0 1080 1080" enable-background="new 0 0 1080 1080" xml:space="preserve">
<path fill="#000000" opacity="1.000000" stroke="none" 
	d="
M2.000000,1.000000 
	C361.598877,1.000000 721.197754,1.000000 1081.000000,1.000000 
	C1081.000000,360.364227 1081.000000,719.728516 1080.531494,1079.538574 
	C720.868591,1079.984375 361.674286,1079.984375 1.993105,1079.984375 
	C1.993105,1077.571777 1.993026,1075.939819 1.993116,1074.307861 
	C2.002738,899.839111 2.019189,725.370361 2.020159,550.901611 
	C2.021178,367.601074 2.007343,184.300537 2.000000,1.000000 
M639.093994,812.443298 
	C646.859314,823.659912 654.744995,834.796204 662.311646,846.145264 
	C664.397522,849.273743 666.595276,850.357361 670.365601,850.348083 
	C726.530212,850.209778 782.695374,850.254395 838.860352,850.242554 
	C840.120972,850.242310 841.381592,850.088013 843.284485,849.963684 
	C761.133057,730.615234 679.356750,611.811707 597.444580,492.810852 
	C672.206909,405.818176 746.689331,319.151184 821.432617,232.180618 
	C820.180908,231.765610 819.721008,231.479538 819.261414,231.480148 
	C804.097900,231.500198 788.932495,231.444000 773.773193,231.719696 
	C771.831482,231.755005 769.384827,233.072464 768.075684,234.580414 
	C739.727112,267.232880 711.461487,299.957764 683.274353,332.749908 
	C652.397034,368.671722 621.626465,404.685181 590.781189,440.634583 
	C585.506409,446.782227 580.090698,452.809021 574.536316,459.123383 
	C573.364868,457.582550 572.417175,456.436890 571.577393,455.216949 
	C521.259521,382.117249 470.926788,309.027679 420.718903,235.852509 
	C418.469788,232.574539 416.128143,231.467438 412.235931,231.476181 
	C356.737854,231.600906 301.239441,231.561401 245.741104,231.561493 
	C243.960007,231.561493 242.178909,231.561478 239.405975,231.561478 
	C318.396667,346.337158 396.833466,460.308044 475.490479,574.598816 
	C396.715912,666.286682 318.050079,757.847961 238.659683,850.252625 
	C255.253799,850.252625 270.558685,850.144348 285.859772,850.336548 
	C289.255066,850.379150 291.320404,849.130981 293.431152,846.662842 
	C324.994049,809.755676 356.654907,772.932373 388.272552,736.072083 
	C419.866364,699.239563 451.424042,662.375916 483.033081,625.556396 
	C487.975861,619.798767 493.107574,614.203430 498.563782,608.070007 
	C545.505310,676.301880 592.120911,744.060059 639.093994,812.443298 
z"/>
<path fill="#343434" opacity="1.000000" stroke="none" 
	d="
M1.500000,1.000000 
	C2.007343,184.300537 2.021178,367.601074 2.020159,550.901611 
	C2.019189,725.370361 2.002738,899.839111 1.993116,1074.307861 
	C1.993026,1075.939819 1.993105,1077.571777 1.993105,1079.984375 
	C361.674286,1079.984375 720.868591,1079.984375 1080.531494,1079.992188 
	C1080.833496,1080.333374 1080.684326,1080.943848 1080.497559,1080.955566 
	C1079.169800,1081.038940 1077.834229,1081.000000 1076.501221,1081.000000 
	C718.084106,1081.000000 359.667023,1081.000000 1.000000,1081.000000 
	C1.000000,721.000061 1.000000,361.000031 1.500000,1.000000 
z"/>
<path fill="#FBFBFB" opacity="1.000000" stroke="none" 
	d="
M638.915283,812.130737 
	C592.120911,744.060059 545.505310,676.301880 498.563782,608.070007 
	C493.107574,614.203430 487.975861,619.798767 483.033081,625.556396 
	C451.424042,662.375916 419.866364,699.239563 388.272552,736.072083 
	C356.654907,772.932373 324.994049,809.755676 293.431152,846.662842 
	C291.320404,849.130981 289.255066,850.379150 285.859772,850.336548 
	C270.558685,850.144348 255.253799,850.252625 238.659683,850.252625 
	C318.050079,757.847961 396.715912,666.286682 475.490479,574.598816 
	C396.833466,460.308044 318.396667,346.337158 239.405975,231.561478 
	C242.178909,231.561478 243.960007,231.561493 245.741104,231.561493 
	C301.239441,231.561401 356.737854,231.600906 412.235931,231.476181 
	C416.128143,231.467438 418.469788,232.574539 420.718903,235.852509 
	C470.926788,309.027679 521.259521,382.117249 571.577393,455.216949 
	C572.417175,456.436890 573.364868,457.582550 574.536316,459.123383 
	C580.090698,452.809021 585.506409,446.782227 590.781189,440.634583 
	C621.626465,404.685181 652.397034,368.671722 683.274353,332.749908 
	C711.461487,299.957764 739.727112,267.232880 768.075684,234.580414 
	C769.384827,233.072464 771.831482,231.755005 773.773193,231.719696 
	C788.932495,231.444000 804.097900,231.500198 819.261414,231.480148 
	C819.721008,231.479538 820.180908,231.765610 821.432617,232.180618 
	C746.689331,319.151184 672.206909,405.818176 597.444580,492.810852 
	C679.356750,611.811707 761.133057,730.615234 843.284485,849.963684 
	C841.381592,850.088013 840.120972,850.242310 838.860352,850.242554 
	C782.695374,850.254395 726.530212,850.209778 670.365601,850.348083 
	C666.595276,850.357361 664.397522,849.273743 662.311646,846.145264 
	C654.744995,834.796204 646.859314,823.659912 638.915283,812.130737 
M648.228699,754.256165 
	C660.176147,771.659729 672.167419,789.033447 684.023804,806.498840 
	C685.803894,809.121094 687.748169,810.058411 690.960266,810.037109 
	C714.457825,809.881653 737.956848,809.957581 761.455444,809.960388 
	C762.859619,809.960510 764.263794,809.960327 766.377930,809.960327 
	C765.169189,807.979187 764.473999,806.706116 763.655640,805.517822 
	C727.170288,752.539795 690.656738,699.581177 654.183533,646.594849 
	C610.262207,582.788147 566.376099,518.957275 522.471008,455.139435 
	C481.303711,395.301208 440.114655,335.478027 399.015656,275.592926 
	C397.125275,272.838440 395.198120,271.733093 391.750671,271.758942 
	C367.920197,271.937378 344.087677,271.840546 320.255829,271.849396 
	C319.206818,271.849762 318.157837,272.017761 316.399658,272.168457 
	C427.156250,433.088898 537.481018,593.381958 648.228699,754.256165 
z"/>
<path fill="#020202" opacity="1.000000" stroke="none" 
	d="
M648.017273,753.965576 
	C537.481018,593.381958 427.156250,433.088898 316.399658,272.168457 
	C318.157837,272.017761 319.206818,271.849762 320.255829,271.849396 
	C344.087677,271.840546 367.920197,271.937378 391.750671,271.758942 
	C395.198120,271.733093 397.125275,272.838440 399.015656,275.592926 
	C440.114655,335.478027 481.303711,395.301208 522.471008,455.139435 
	C566.376099,518.957275 610.262207,582.788147 654.183533,646.594849 
	C690.656738,699.581177 727.170288,752.539795 763.655640,805.517822 
	C764.473999,806.706116 765.169189,807.979187 766.377930,809.960327 
	C764.263794,809.960327 762.859619,809.960510 761.455444,809.960388 
	C737.956848,809.957581 714.457825,809.881653 690.960266,810.037109 
	C687.748169,810.058411 685.803894,809.121094 684.023804,806.498840 
	C672.167419,789.033447 660.176147,771.659729 648.017273,753.965576 
z"/>
</svg>